<svg width="24" height="26" viewBox="0 0 24 26" fill="none" xmlns="http://www.w3.org/2000/svg">
<rect y="2" width="24" height="24" rx="12" fill="url(#paint0_radial_92_9)"/>
<path d="M11.78 7H15.28V8.5H14.08L18.04 19.5H19.36V21H15.12V19.5H16.3L15.4 16.88H9.92L9.02 19.5H10.22V21H5.98V19.5H7.28L11.24 8.52C9.16 8.54667 7.7 8.78667 6.86 9.24C6.02 9.68 5.6 10.36 5.6 11.28C5.6 11.68 5.68667 12.0133 5.86 12.28C6.03333 12.5333 6.28667 12.66 6.62 12.66C7.24667 12.66 7.56 12.1333 7.56 11.08H9.16C9.16 11.9467 8.96 12.68 8.56 13.28C8.16 13.8667 7.51333 14.16 6.62 14.16C5.72667 14.16 5.06667 13.88 4.64 13.32C4.21333 12.76 4 12.08 4 11.28C4 9.97333 4.62 8.93333 5.86 8.16C7.1 7.38667 9.07333 7 11.78 7ZM12.66 8.9L10.36 15.58H14.96L12.66 8.9Z" fill="white"/>
<defs>
<radialGradient id="paint0_radial_92_9" cx="0" cy="0" r="1" gradientUnits="userSpaceOnUse" gradientTransform="translate(12 14) rotate(90) scale(12)">
<stop stop-color="#FF7DF6"/>
<stop offset="0.5" stop-color="#FFA8F9"/>
<stop offset="0.870192" stop-color="#FF7DF6"/>
<stop offset="0.870292" stop-color="#FFE0FD"/>
<stop offset="1" stop-color="white"/>
</radialGradient>
</defs>
</svg>
