<svg width="24" height="31" viewBox="0 0 24 31" fill="none" xmlns="http://www.w3.org/2000/svg">
<rect y="7" width="24" height="24" rx="2" fill="url(#paint0_radial_92_9)"/>
<path d="M16.344 22.088L16.2 22.016C15.528 21.84 14.816 21.728 14.064 21.68C13.312 21.632 12.544 21.528 11.76 21.368C12.528 21.528 13.28 21.656 14.016 21.752C14.752 21.832 15.48 21.992 16.2 22.232C15.976 22.376 15.736 22.448 15.48 22.448C15.176 22.416 14.872 22.368 14.568 22.304C14.28 22.24 13.968 22.192 13.632 22.16C13.632 22.064 13.656 21.992 13.704 21.944C13.24 21.944 12.776 21.896 12.312 21.8C11.864 21.704 11.424 21.6 10.992 21.488C10.56 21.36 10.136 21.248 9.72 21.152C9.32 21.04 8.944 20.984 8.592 20.984C8.592 21.032 8.584 21.056 8.568 21.056C8.984 21.136 9.376 21.248 9.744 21.392C10.112 21.536 10.528 21.648 10.992 21.728C11.44 21.84 11.872 21.92 12.288 21.968C12.72 22.016 13.144 22.08 13.56 22.16C12.888 22.096 12.2 22 11.496 21.872C10.808 21.744 10.128 21.6 9.456 21.44L8.328 21.152C7.928 22.176 7.52 23.184 7.104 24.176C6.704 25.152 6.312 26.144 5.928 27.152C5.896 27.088 5.84 27.048 5.76 27.032C5.696 27.032 5.624 27.032 5.544 27.032C5.48 27.032 5.416 27.008 5.352 26.96C5.288 26.928 5.256 26.848 5.256 26.72C5.256 26.592 5.288 26.408 5.352 26.168C5.416 25.944 5.536 25.64 5.712 25.256C5.68 25.224 5.624 25.208 5.544 25.208C5.48 25.192 5.432 25.184 5.4 25.184C5.08 25.856 4.768 26.368 4.464 26.72C4.176 27.088 3.944 27.272 3.768 27.272C3.576 27.272 3.48 27.088 3.48 26.72C3.48 26.416 3.536 26.032 3.648 25.568C3.76 25.088 3.896 24.576 4.056 24.032C4.232 23.488 4.424 22.928 4.632 22.352C4.84 21.76 5.04 21.184 5.232 20.624C5.056 20.512 4.864 20.432 4.656 20.384C4.464 20.336 4.248 20.296 4.008 20.264C4.056 20.2 4.08 20.12 4.08 20.024C4.08 19.928 4.088 19.832 4.104 19.736C4.12 19.64 4.152 19.56 4.2 19.496C4.248 19.432 4.336 19.4 4.464 19.4C4.496 19.4 4.592 19.416 4.752 19.448V19.232C4.496 19.104 4.296 18.952 4.152 18.776C4.024 18.6 3.96 18.424 3.96 18.248C3.96 17.864 4.328 17.672 5.064 17.672C5.272 17.672 5.48 17.688 5.688 17.72C5.912 17.736 6.136 17.76 6.36 17.792L7.464 15.272C7.704 14.728 7.96 14.168 8.232 13.592C8.52 13.016 8.856 12.448 9.24 11.888C9.624 11.328 10.056 10.8 10.536 10.304C11.032 9.792 11.6 9.336 12.24 8.936L12.6 8.792C13.048 8.904 13.408 9 13.68 9.08C13.968 9.144 14.2 9.192 14.376 9.224C14.536 9.288 14.664 9.328 14.76 9.344H14.736L14.76 9.416C14.76 9.432 14.752 9.448 14.736 9.464L15.024 9.968C16.064 11.712 16.944 13.52 17.664 15.392C18.384 17.264 19 19.104 19.512 20.912C19.64 21.312 19.792 21.744 19.968 22.208C20.16 22.656 20.336 23.088 20.496 23.504C20.672 23.904 20.816 24.272 20.928 24.608C21.04 24.928 21.096 25.16 21.096 25.304C21.096 25.416 21.072 25.488 21.024 25.52C20.976 25.536 20.912 25.544 20.832 25.544C20.416 24.504 20.024 23.48 19.656 22.472C19.288 21.48 18.928 20.48 18.576 19.472C18.896 20.48 19.232 21.48 19.584 22.472C19.952 23.48 20.32 24.504 20.688 25.544H20.52C20.424 25.544 20.36 25.592 20.328 25.688C20.36 25.72 20.4 25.808 20.448 25.952C20.496 26.08 20.544 26.216 20.592 26.36C20.64 26.52 20.68 26.68 20.712 26.84C20.744 27 20.76 27.12 20.76 27.2C20.76 27.552 20.656 27.728 20.448 27.728C20.336 27.728 20.248 27.704 20.184 27.656C20.12 27.608 20.048 27.544 19.968 27.464L19.728 27.224C19.632 27.128 19.512 27.032 19.368 26.936L17.064 20.312C17.4 21.352 17.728 22.392 18.048 23.432C18.384 24.472 18.728 25.496 19.08 26.504C18.824 26.2 18.584 25.832 18.36 25.4C18.152 24.968 17.952 24.512 17.76 24.032C17.584 23.552 17.416 23.064 17.256 22.568C17.096 22.056 16.936 21.576 16.776 21.128C16.776 21.16 16.776 21.192 16.776 21.224C16.792 21.24 16.8 21.264 16.8 21.296C16.8 21.552 16.72 21.744 16.56 21.872L16.344 22.088ZM16.2 19.592C16.232 19.592 16.28 19.584 16.344 19.568C16.408 19.536 16.456 19.52 16.488 19.52C15.96 18.192 15.432 16.904 14.904 15.656C14.392 14.408 13.824 13.208 13.2 12.056L13.056 12.2L13.416 12.848C13.976 13.872 14.48 14.928 14.928 16.016C15.376 17.104 15.8 18.224 16.2 19.376C15.736 18.128 15.232 16.888 14.688 15.656C14.16 14.408 13.592 13.28 12.984 12.272L12.888 12.32C12.344 12.88 11.832 13.552 11.352 14.336C10.888 15.12 10.448 15.92 10.032 16.736L9.408 18.248L9.816 18.344C10.056 18.408 10.288 18.48 10.512 18.56C10.752 18.624 10.96 18.696 11.136 18.776C11.488 18.952 11.952 19.088 12.528 19.184C13.104 19.28 13.664 19.376 14.208 19.472C14.768 19.552 15.248 19.648 15.648 19.76C16.064 19.856 16.272 20 16.272 20.192L13.344 19.856C13.52 19.888 13.736 19.928 13.992 19.976C14.248 20.008 14.504 20.048 14.76 20.096C15.032 20.144 15.296 20.192 15.552 20.24C15.808 20.272 16.024 20.304 16.2 20.336C16.2 20.384 16.192 20.432 16.176 20.48C16.176 20.512 16.176 20.544 16.176 20.576C16.176 20.608 16.192 20.632 16.224 20.648C16.272 20.648 16.32 20.656 16.368 20.672C16.432 20.672 16.488 20.688 16.536 20.72C16.584 20.736 16.632 20.784 16.68 20.864L16.2 19.592ZM10.992 14.456C11.024 14.456 11.032 14.48 11.016 14.528C11.016 14.56 11.024 14.576 11.04 14.576C11.072 14.576 11.168 14.464 11.328 14.24C11.488 14.016 11.672 13.76 11.88 13.472C12.088 13.184 12.288 12.912 12.48 12.656C12.672 12.4 12.808 12.232 12.888 12.152L12.768 11.984C12.432 12.304 12.12 12.68 11.832 13.112C11.544 13.544 11.264 13.992 10.992 14.456ZM13.416 11.864C13.928 12.728 14.4 13.632 14.832 14.576C15.248 15.504 15.64 16.432 16.008 17.36C15.704 16.432 15.336 15.504 14.904 14.576C14.456 13.632 13.968 12.728 13.44 11.864H13.416ZM17.088 15.464C17.584 16.744 18.072 18.048 18.552 19.376C18.104 18.08 17.632 16.8 17.136 15.536C16.672 14.288 16.136 13.032 15.528 11.768C16.104 12.984 16.624 14.216 17.088 15.464ZM13.56 11.336C13.768 11.384 13.912 11.432 13.992 11.48C14.072 11.528 14.128 11.552 14.16 11.552L14.184 11.48C14.2 11.48 14.168 11.472 14.088 11.456C14.008 11.44 13.944 11.424 13.896 11.408L13.944 11.312L13.656 11.216L13.56 11.336ZM12.384 11.096L12.576 11.6L12.552 11.096C12.52 11.096 12.48 11.088 12.432 11.072C12.4 11.056 12.368 11.048 12.336 11.048L12.384 11.096ZM13.008 11.792L12.84 11.912L12.984 12.104L13.128 11.96L13.008 11.792ZM13.344 11.744H13.368L13.248 11.576V11.6L13.344 11.744Z" fill="white"/>
<defs>
<radialGradient id="paint0_radial_92_9" cx="0" cy="0" r="1" gradientUnits="userSpaceOnUse" gradientTransform="translate(12 19) rotate(90) scale(12)">
<stop stop-color="#EAF6FF"/>
<stop offset="0.35" stop-color="#CFEAFF"/>
<stop offset="0.65" stop-color="#A9D6F5"/>
<stop offset="1" stop-color="#7FB6DC"/>
</radialGradient>
</defs>
</svg>
